<?xml version="1.0" encoding="utf-8"?>
<!-- Generator: Adobe Illustrator 27.5.0, SVG Export Plug-In . SVG Version: 6.00 Build 0)  -->
<svg version="1.1" id="Layer_1" xmlns="http://www.w3.org/2000/svg" xmlns:xlink="http://www.w3.org/1999/xlink" x="0px" y="0px"
	 viewBox="0 0 1300 1300" style="enable-background:new 0 0 1300 1300;" xml:space="preserve">
<g id="XMLID_1_">
	<g id="XMLID_11_">
		
			<linearGradient id="XMLID_00000158707119866949495030000014904714501018141335_" gradientUnits="userSpaceOnUse" x1="714.5361" y1="564.9353" x2="845.2307" y2="564.9353">
			<stop  offset="0" style="stop-color:#710000"/>
			<stop  offset="1" style="stop-color:#E11B22"/>
		</linearGradient>
		<polygon id="XMLID_2_" style="fill:url(#XMLID_00000158707119866949495030000014904714501018141335_);" points="714.536,516 
			780.344,516 845.231,580.614 812.426,613.871 		"/>
		
			<linearGradient id="XMLID_00000031912439509762801560000015509615003720895891_" gradientUnits="userSpaceOnUse" x1="714.4191" y1="467.1205" x2="844.9968" y2="467.1205">
			<stop  offset="0" style="stop-color:#F04E23"/>
			<stop  offset="0.2551" style="stop-color:#F37021"/>
			<stop  offset="1" style="stop-color:#F68B1F"/>
		</linearGradient>
		<polygon id="XMLID_3_" style="fill:url(#XMLID_00000031912439509762801560000015509615003720895891_);" points="714.419,516.066 
			812.282,418.175 844.997,451.268 780.344,515.921 		"/>
		
			<linearGradient id="XMLID_00000063603761504763864210000000848807760594510230_" gradientUnits="userSpaceOnUse" x1="650" y1="678.9868" x2="812.5141" y2="678.9868">
			<stop  offset="0" style="stop-color:#F04E23"/>
			<stop  offset="0.2551" style="stop-color:#F37021"/>
			<stop  offset="1" style="stop-color:#F68B1F"/>
		</linearGradient>
		<polygon id="XMLID_4_" style="fill:url(#XMLID_00000063603761504763864210000000848807760594510230_);" points="779.825,581.131 
			650,710.891 650,776.843 812.514,613.812 		"/>
		
			<linearGradient id="XMLID_00000106108469578009766730000008925645126821566617_" gradientUnits="userSpaceOnUse" x1="650" y1="353.062" x2="812.3406" y2="353.062">
			<stop  offset="0" style="stop-color:#E11B22"/>
			<stop  offset="1" style="stop-color:#710000"/>
		</linearGradient>
		<polygon id="XMLID_5_" style="fill:url(#XMLID_00000106108469578009766730000008925645126821566617_);" points="650,320.808 
			650,255 812.341,418.175 779.614,451.124 		"/>
		
			<linearGradient id="XMLID_00000104681346248875112680000007846531088408380585_" gradientUnits="userSpaceOnUse" x1="454.7693" y1="564.9353" x2="585.4639" y2="564.9353">
			<stop  offset="0" style="stop-color:#F68B1F"/>
			<stop  offset="0.7449" style="stop-color:#F37021"/>
			<stop  offset="1" style="stop-color:#F04E23"/>
		</linearGradient>
		<polygon id="XMLID_12_" style="fill:url(#XMLID_00000104681346248875112680000007846531088408380585_);" points="585.464,516 
			519.656,516 454.769,580.614 487.574,613.871 		"/>
		
			<linearGradient id="XMLID_00000177473261054255306420000015118626604648171931_" gradientUnits="userSpaceOnUse" x1="455.0032" y1="467.1205" x2="585.5809" y2="467.1205">
			<stop  offset="0" style="stop-color:#E11B22"/>
			<stop  offset="1" style="stop-color:#710000"/>
		</linearGradient>
		<polygon id="XMLID_10_" style="fill:url(#XMLID_00000177473261054255306420000015118626604648171931_);" points="585.581,516.066 
			487.718,418.175 455.003,451.268 519.656,515.921 		"/>
		
			<linearGradient id="XMLID_00000121963597758803849680000000376780719661607307_" gradientUnits="userSpaceOnUse" x1="487.4859" y1="678.9868" x2="650" y2="678.9868">
			<stop  offset="0" style="stop-color:#710000"/>
			<stop  offset="1" style="stop-color:#E11B22"/>
		</linearGradient>
		<polygon id="XMLID_8_" style="fill:url(#XMLID_00000121963597758803849680000000376780719661607307_);" points="520.175,581.131 
			650,710.891 650,776.843 487.486,613.812 		"/>
		
			<linearGradient id="XMLID_00000017474844321055574060000016793295972499393707_" gradientUnits="userSpaceOnUse" x1="487.6594" y1="353.062" x2="650" y2="353.062">
			<stop  offset="0" style="stop-color:#F04E23"/>
			<stop  offset="0.2551" style="stop-color:#F37021"/>
			<stop  offset="1" style="stop-color:#F68B1F"/>
		</linearGradient>
		<polygon id="XMLID_7_" style="fill:url(#XMLID_00000017474844321055574060000016793295972499393707_);" points="650,320.808 
			650,255 487.659,418.175 520.386,451.124 		"/>
		
			<linearGradient id="XMLID_00000146500180950732236650000008293675576752882579_" gradientUnits="userSpaceOnUse" x1="649.6425" y1="581.0073" x2="649.6425" y2="451.1239">
			<stop  offset="0" style="stop-color:#CE181E"/>
			<stop  offset="1" style="stop-color:#F68B1F"/>
		</linearGradient>
		<polygon id="XMLID_9_" style="fill:url(#XMLID_00000146500180950732236650000008293675576752882579_);" points="714.584,516.066 
			649.642,451.124 584.701,516.066 649.642,581.007 		"/>
	</g>
	<g id="XMLID_50_">
		<path id="XMLID_51_" d="M298.118,830.237h13.259v91.593h43.891v11.126h-57.15V830.237z"/>
		<path id="XMLID_53_" d="M451.888,880.531c0,35.357-21.488,54.102-47.701,54.102c-27.128,0-46.178-21.032-46.178-52.122
			c0-32.613,20.27-53.949,47.702-53.949C433.752,828.562,451.888,850.049,451.888,880.531z M372.182,882.206
			c0,21.947,11.887,41.606,32.766,41.606c21.032,0,32.919-19.354,32.919-42.672c0-20.421-10.668-41.759-32.766-41.759
			C383.155,839.381,372.182,859.65,372.182,882.206z"/>
		<path id="XMLID_56_" d="M547.287,928.385c-5.943,2.133-17.678,5.637-31.547,5.637c-15.545,0-28.347-3.962-38.405-13.563
			c-8.839-8.535-14.326-22.249-14.326-38.253c0.153-30.633,21.184-53.036,55.627-53.036c11.887,0,21.184,2.591,25.604,4.724
			l-3.201,10.821c-5.486-2.438-12.344-4.42-22.708-4.42c-24.994,0-41.301,15.545-41.301,41.301c0,26.06,15.697,41.452,39.624,41.452
			c8.687,0,14.63-1.22,17.679-2.742v-30.633h-20.879v-10.668h33.833V928.385z"/>
		<path id="XMLID_58_" d="M655.336,880.531c0,35.357-21.488,54.102-47.701,54.102c-27.128,0-46.178-21.032-46.178-52.122
			c0-32.613,20.269-53.949,47.702-53.949C637.201,828.562,655.336,850.049,655.336,880.531z M575.63,882.206
			c0,21.947,11.887,41.606,32.766,41.606c21.032,0,32.92-19.354,32.92-42.672c0-20.421-10.669-41.759-32.767-41.759
			C586.603,839.381,575.63,859.65,575.63,882.206z"/>
		<path id="XMLID_61_" d="M718.121,841.516h-31.242v-11.279h76.048v11.279h-31.394v91.439h-13.412V841.516z"/>
		<path id="XMLID_63_" d="M827.543,884.797h-39.93v37.033h44.501v11.126h-57.76V830.237h55.476v11.126h-42.217v32.462h39.93V884.797
			z"/>
		<path id="XMLID_65_" d="M905.568,932.955l-13.106-22.707c-5.335-8.686-8.688-14.326-11.888-20.27h-0.304
			c-2.895,5.944-5.793,11.43-11.126,20.423l-12.346,22.554H841.56l31.395-51.969l-30.175-50.749h15.392l13.563,24.08
			c3.811,6.706,6.706,11.888,9.448,17.374h0.458c2.895-6.097,5.486-10.821,9.297-17.374l14.021-24.08h15.239l-31.242,49.989
			l32.004,52.729H905.568z"/>
		<path id="XMLID_67_" d="M957.077,841.516h-31.242v-11.279h76.047v11.279h-31.395v91.439h-13.41V841.516z"/>
	</g>
	<g id="XMLID_6_">
		<path id="XMLID_13_" style="fill:#CE181E;" d="M291.359,1027.626c0.166-2.661,0.333-7.565,0.333-12.136v-46.887h12.636v23.192
			h0.166c2.41-3.491,6.65-5.734,12.303-5.734c9.727,0,16.876,8.064,16.793,20.533c0,14.63-9.311,21.947-18.622,21.947
			c-4.739,0-9.311-1.745-12.221-6.568h-0.166l-0.499,5.653H291.359z M304.327,1010.335c0,0.832,0.083,1.578,0.249,2.244
			c0.832,3.409,3.741,5.987,7.399,5.987c5.403,0,8.729-4.158,8.729-11.473c0-6.318-2.827-11.306-8.729-11.306
			c-3.408,0-6.567,2.577-7.399,6.235c-0.166,0.749-0.249,1.497-0.249,2.327V1010.335z"/>
		<path id="XMLID_16_" style="fill:#CE181E;" d="M388.036,1014.574c0,5.322,0.166,9.644,0.333,13.051h-10.974l-0.582-5.737h-0.249
			c-1.58,2.494-5.403,6.652-12.719,6.652c-8.23,0-14.298-5.155-14.298-17.708v-23.859h12.719v21.864
			c0,5.903,1.912,9.477,6.318,9.477c3.492,0,5.487-2.411,6.318-4.406c0.333-0.749,0.415-1.745,0.415-2.742v-24.193h12.72V1014.574z"
			/>
		<path id="XMLID_18_" style="fill:#CE181E;" d="M406.402,1016.57c2.328,1.414,7.149,3.076,10.891,3.076
			c3.824,0,5.403-1.33,5.403-3.409c0-2.077-1.247-3.076-5.986-4.654c-8.396-2.828-11.638-7.398-11.555-12.222
			c0-7.565,6.485-13.299,16.543-13.299c4.739,0,8.979,1.08,11.473,2.327l-2.245,8.729c-1.829-0.997-5.32-2.327-8.812-2.327
			c-3.076,0-4.822,1.247-4.822,3.324c0,1.912,1.579,2.911,6.567,4.656c7.731,2.661,10.973,6.566,11.056,12.553
			c0,7.565-5.986,13.135-17.624,13.135c-5.32,0-10.059-1.163-13.135-2.828L406.402,1016.57z"/>
		<path id="XMLID_20_" style="fill:#CE181E;" d="M463.926,975.668c0,3.493-2.66,6.318-6.817,6.318c-3.991,0-6.651-2.826-6.567-6.318
			c-0.083-3.658,2.577-6.402,6.65-6.402C461.266,969.266,463.843,972.01,463.926,975.668z M450.874,1027.626v-40.652h12.636v40.652
			H450.874z"/>
		<path id="XMLID_23_" style="fill:#CE181E;" d="M481.962,999.942c0-5.069-0.166-9.394-0.333-12.968h10.974l0.582,5.57h0.249
			c1.663-2.577,5.819-6.483,12.553-6.483c8.313,0,14.548,5.486,14.548,17.458v24.107h-12.636v-22.529
			c0-5.236-1.829-8.812-6.401-8.812c-3.492,0-5.57,2.41-6.401,4.74c-0.333,0.749-0.499,1.996-0.499,3.159v23.442h-12.636V999.942z"
			/>
		<path id="XMLID_25_" style="fill:#CE181E;" d="M548.712,1011.332c0.416,5.238,5.57,7.732,11.472,7.732
			c4.323,0,7.814-0.582,11.223-1.662l1.663,8.562c-4.157,1.662-9.228,2.494-14.715,2.494c-13.8,0-21.698-7.98-21.698-20.7
			c0-10.31,6.402-21.697,20.534-21.697c13.135,0,18.123,10.224,18.123,20.283c0,2.163-0.249,4.075-0.416,4.988H548.712z
			 M563.593,1002.686c0-3.076-1.33-8.23-7.149-8.23c-5.32,0-7.482,4.823-7.814,8.23H563.593z"/>
		<path id="XMLID_28_" style="fill:#CE181E;" d="M591.105,1016.57c2.328,1.414,7.149,3.076,10.891,3.076
			c3.824,0,5.403-1.33,5.403-3.409c0-2.077-1.247-3.076-5.986-4.654c-8.396-2.828-11.638-7.398-11.555-12.222
			c0-7.565,6.485-13.299,16.543-13.299c4.739,0,8.979,1.08,11.473,2.327l-2.245,8.729c-1.829-0.997-5.32-2.327-8.812-2.327
			c-3.076,0-4.821,1.247-4.821,3.324c0,1.912,1.579,2.911,6.567,4.656c7.731,2.661,10.974,6.566,11.057,12.553
			c0,7.565-5.986,13.135-17.624,13.135c-5.32,0-10.059-1.163-13.135-2.828L591.105,1016.57z"/>
		<path id="XMLID_30_" style="fill:#CE181E;" d="M635.493,1016.57c2.328,1.414,7.15,3.076,10.891,3.076
			c3.824,0,5.403-1.33,5.403-3.409c0-2.077-1.247-3.076-5.984-4.654c-8.397-2.828-11.639-7.398-11.557-12.222
			c0-7.565,6.485-13.299,16.544-13.299c4.738,0,8.978,1.08,11.472,2.327l-2.245,8.729c-1.829-0.997-5.321-2.327-8.812-2.327
			c-3.076,0-4.821,1.247-4.821,3.324c0,1.912,1.578,2.911,6.567,4.656c7.731,2.661,10.974,6.566,11.057,12.553
			c0,7.565-5.987,13.135-17.624,13.135c-5.32,0-10.059-1.163-13.135-2.828L635.493,1016.57z"/>
		<path id="XMLID_32_" style="fill:#CE181E;" d="M719.2,975.336v11.638h9.063v9.311H719.2V1011c0,4.904,1.165,7.148,4.988,7.148
			c1.581,0,2.828-0.165,3.741-0.331l0.083,9.561c-1.662,0.665-4.654,1.08-8.229,1.08c-4.073,0-7.483-1.414-9.477-3.493
			c-2.328-2.41-3.492-6.316-3.492-12.052v-16.628h-5.403v-9.311h5.403v-8.812L719.2,975.336z"/>
		<path id="XMLID_34_" style="fill:#CE181E;" d="M766.997,1027.626l-0.747-4.072h-0.249c-2.661,3.242-6.817,4.988-11.639,4.988
			c-8.23,0-13.135-5.987-13.135-12.47c0-10.557,9.476-15.629,23.858-15.545v-0.584c0-2.16-1.164-5.236-7.398-5.236
			c-4.156,0-8.562,1.414-11.223,3.076l-2.327-8.147c2.825-1.581,8.395-3.574,15.795-3.574c13.551,0,17.874,7.98,17.874,17.541
			v14.132c0,3.908,0.167,7.649,0.582,9.892H766.997z M765.501,1008.423c-6.651-0.083-11.805,1.497-11.805,6.402
			c0,3.242,2.161,4.821,4.988,4.821c3.159,0,5.735-2.079,6.568-4.656c0.167-0.665,0.249-1.412,0.249-2.16V1008.423z"/>
		<path id="XMLID_37_" style="fill:#CE181E;" d="M834.913,986.974c-0.167,2.577-0.334,5.987-0.334,12.055v22.696
			c0,7.813-1.578,14.215-6.151,18.287c-4.49,3.824-10.558,4.988-16.544,4.988c-5.319,0-10.972-1.08-14.63-3.157l2.494-9.561
			c2.577,1.495,7.067,3.076,11.805,3.076c5.985,0,10.558-3.243,10.558-10.724v-2.661h-0.167c-2.411,3.409-6.318,5.322-10.972,5.322
			c-10.059,0-17.21-8.147-17.21-19.868c0-13.054,8.481-21.365,18.456-21.365c5.57,0,9.06,2.41,11.139,5.734h0.167l0.415-4.821
			H834.913z M821.943,1003.518c0-0.832-0.083-1.664-0.248-2.329c-0.916-3.324-3.326-5.57-6.817-5.57
			c-4.573,0-8.314,4.158-8.314,11.557c0,6.068,2.992,10.808,8.314,10.808c3.24,0,5.818-2.163,6.65-5.155
			c0.331-0.916,0.415-2.246,0.415-3.326V1003.518z"/>
		<path id="XMLID_40_" style="fill:#CE181E;" d="M853.029,968.603h12.637v59.023h-12.637V968.603z"/>
		<path id="XMLID_42_" style="fill:#CE181E;" d="M897.253,975.668c0,3.493-2.659,6.318-6.817,6.318c-3.989,0-6.65-2.826-6.566-6.318
			c-0.083-3.658,2.577-6.402,6.65-6.402C894.594,969.266,897.169,972.01,897.253,975.668z M884.201,1027.626v-40.652h12.637v40.652
			H884.201z"/>
		<path id="XMLID_45_" style="fill:#CE181E;" d="M915.29,999.942c0-5.069-0.167-9.394-0.334-12.968h10.975l0.582,5.57h0.248
			c1.664-2.577,5.82-6.483,12.553-6.483c8.314,0,14.549,5.486,14.549,17.458v24.107h-12.637v-22.529
			c0-5.236-1.829-8.812-6.402-8.812c-3.491,0-5.57,2.41-6.399,4.74c-0.334,0.749-0.501,1.996-0.501,3.159v23.442H915.29V999.942z"/>
		<path id="XMLID_47_" style="fill:#CE181E;" d="M982.04,1011.332c0.415,5.238,5.57,7.732,11.471,7.732
			c4.323,0,7.816-0.582,11.223-1.662l1.664,8.562c-4.158,1.662-9.229,2.494-14.716,2.494c-13.8,0-21.697-7.98-21.697-20.7
			c0-10.31,6.402-21.697,20.533-21.697c13.135,0,18.123,10.224,18.123,20.283c0,2.163-0.248,4.075-0.415,4.988H982.04z
			 M996.92,1002.686c0-3.076-1.33-8.23-7.15-8.23c-5.319,0-7.482,4.823-7.813,8.23H996.92z"/>
	</g>
</g>
</svg>
